<?xml version="1.0" encoding="utf-8" standalone="no"?>
<!DOCTYPE svg PUBLIC "-//W3C//DTD SVG 1.1//EN"
  "http://www.w3.org/Graphics/SVG/1.1/DTD/svg11.dtd">
<!-- Created with matplotlib (https://matplotlib.org/) -->
<svg height="109.919pt" version="1.1" viewBox="0 0 241.1 109.919" width="241.1pt" xmlns="http://www.w3.org/2000/svg" xmlns:xlink="http://www.w3.org/1999/xlink">
 <metadata>
  <rdf:RDF xmlns:cc="http://creativecommons.org/ns#" xmlns:dc="http://purl.org/dc/elements/1.1/" xmlns:rdf="http://www.w3.org/1999/02/22-rdf-syntax-ns#">
   <cc:Work>
    <dc:type rdf:resource="http://purl.org/dc/dcmitype/StillImage"/>
    <dc:date>2021-01-07T10:51:34.278003</dc:date>
    <dc:format>image/svg+xml</dc:format>
    <dc:creator>
     <cc:Agent>
      <dc:title>Matplotlib v3.3.1, https://matplotlib.org/</dc:title>
     </cc:Agent>
    </dc:creator>
   </cc:Work>
  </rdf:RDF>
 </metadata>
 <defs>
  <style type="text/css">*{stroke-linecap:butt;stroke-linejoin:round;}</style>
 </defs>
 <g id="figure_1">
  <g id="patch_1">
   <path d="M 0 109.919 
L 241.1 109.919 
L 241.1 0 
L 0 0 
z
" style="fill:#ffffff;"/>
  </g>
  <g id="axes_1">
   <g id="patch_2">
    <path d="M 10.7 75.609 
L 233.9 75.609 
L 233.9 20.169 
L 10.7 20.169 
z
" style="fill:#ffffff;"/>
   </g>
   <g id="PolyCollection_1">
    <defs>
     <path d="M 10.7 -73.958335 
L 10.7 -50.101665 
L 11.03767 -49.374677 
L 11.37534 -45.799743 
L 11.713011 -57.879058 
L 12.050681 -61.331697 
L 12.388351 -44.376976 
L 12.726021 -57.76267 
L 13.063691 -58.84284 
L 13.401362 -59.118466 
L 13.739032 -55.897294 
L 14.076702 -48.645786 
L 14.414372 -56.773035 
L 14.752042 -61.81345 
L 15.089713 -41.496437 
L 15.427383 -62.011657 
L 15.765053 -58.716831 
L 16.102723 -50.956714 
L 16.440393 -52.934151 
L 16.778064 -53.356405 
L 17.115734 -56.769094 
L 17.453404 -53.77445 
L 17.791074 -55.336988 
L 18.128744 -52.595244 
L 18.466415 -56.266938 
L 18.804085 -59.982003 
L 19.141755 -60.659092 
L 19.479425 -53.102551 
L 19.817095 -53.308205 
L 20.154766 -55.256179 
L 20.492436 -56.811924 
L 20.830106 -55.541302 
L 21.167776 -55.911858 
L 21.505446 -53.058228 
L 21.843116 -52.162282 
L 22.180787 -61.571931 
L 22.518457 -52.649304 
L 22.856127 -61.279519 
L 23.193797 -50.174738 
L 23.531467 -59.330289 
L 23.869138 -57.785877 
L 24.206808 -51.595412 
L 24.544478 -57.484375 
L 24.882148 -57.135939 
L 25.219818 -56.274629 
L 25.557489 -57.772976 
L 25.895159 -57.94389 
L 26.232829 -52.583803 
L 26.570499 -58.793517 
L 26.908169 -59.492723 
L 27.24584 -59.400569 
L 27.58351 -59.543567 
L 27.92118 -57.284173 
L 28.25885 -60.054288 
L 28.59652 -50.564372 
L 28.934191 -58.996137 
L 29.271861 -54.652472 
L 29.609531 -55.338914 
L 29.947201 -54.784864 
L 30.284871 -57.114041 
L 30.622542 -57.665684 
L 30.960212 -50.164664 
L 31.297882 -56.163059 
L 31.635552 -58.784074 
L 31.973222 -57.165482 
L 32.310893 -55.531337 
L 32.648563 -57.365241 
L 32.986233 -57.319377 
L 33.323903 -58.649292 
L 33.661573 -56.206317 
L 33.999244 -54.395929 
L 34.336914 -61.157587 
L 34.674584 -55.488724 
L 35.012254 -59.125938 
L 35.349924 -57.48729 
L 35.687595 -50.204215 
L 36.025265 -57.83268 
L 36.362935 -49.557998 
L 36.700605 -57.382516 
L 37.038275 -50.572084 
L 37.375946 -54.549835 
L 37.713616 -56.722841 
L 38.051286 -52.926579 
L 38.388956 -61.664978 
L 38.726626 -60.113284 
L 39.064297 -60.460612 
L 39.401967 -42.086809 
L 39.739637 -57.402792 
L 40.077307 -59.869834 
L 40.414977 -50.405339 
L 40.752648 -56.072529 
L 41.090318 -62.027939 
L 41.427988 -60.095273 
L 41.765658 -54.208311 
L 42.103328 -56.216306 
L 42.440998 -54.116958 
L 42.778669 -48.706981 
L 43.116339 -50.859693 
L 43.454009 -51.642017 
L 43.791679 -45.402179 
L 44.129349 -59.816478 
L 44.46702 -60.531522 
L 44.80469 -59.430871 
L 45.14236 -60.65183 
L 45.48003 -54.460825 
L 45.8177 -59.445448 
L 46.155371 -52.431764 
L 46.493041 -61.88779 
L 46.830711 -61.70554 
L 47.168381 -55.318005 
L 47.506051 -49.525169 
L 47.843722 -61.02969 
L 48.181392 -54.644197 
L 48.519062 -50.4837 
L 48.856732 -56.316823 
L 49.194402 -56.378823 
L 49.532073 -49.334609 
L 49.869743 -51.693995 
L 50.207413 -60.335947 
L 50.545083 -53.526237 
L 50.882753 -54.369901 
L 51.220424 -59.532591 
L 51.558094 -61.93406 
L 51.895764 -50.11228 
L 52.233434 -57.409941 
L 52.571104 -49.395024 
L 52.908775 -54.059544 
L 53.246445 -50.677625 
L 53.584115 -61.037124 
L 53.921785 -50.467031 
L 54.259455 -58.697429 
L 54.597126 -59.751945 
L 54.934796 -59.689849 
L 55.272466 -61.986175 
L 55.610136 -58.699737 
L 55.947806 -58.583928 
L 56.285477 -56.668612 
L 56.623147 -60.64258 
L 56.960817 -51.530389 
L 57.298487 -49.272344 
L 57.636157 -58.948408 
L 57.973828 -61.854339 
L 58.311498 -60.153863 
L 58.649168 -57.590775 
L 58.986838 -55.35969 
L 59.324508 -49.636873 
L 59.662179 -55.076052 
L 59.999849 -55.991851 
L 60.337519 -59.104507 
L 60.675189 -52.215987 
L 61.012859 -58.871525 
L 61.35053 -46.975477 
L 61.6882 -56.035991 
L 62.02587 -54.445267 
L 62.36354 -56.719955 
L 62.70121 -48.714715 
L 63.03888 -56.625604 
L 63.376551 -61.633253 
L 63.714221 -60.013896 
L 64.051891 -57.783197 
L 64.389561 -51.530985 
L 64.727231 -56.257257 
L 65.064902 -57.680457 
L 65.402572 -57.270553 
L 65.740242 -45.600735 
L 66.077912 -56.253386 
L 66.415582 -56.002902 
L 66.753253 -54.691554 
L 67.090923 -61.613494 
L 67.428593 -60.669326 
L 67.766263 -60.335572 
L 68.103933 -61.589046 
L 68.441604 -59.291726 
L 68.779274 -59.263182 
L 69.116944 -53.525955 
L 69.454614 -55.961682 
L 69.792284 -52.914479 
L 70.129955 -59.385539 
L 70.467625 -51.81649 
L 70.805295 -60.295585 
L 71.142965 -38.992882 
L 71.480635 -58.235896 
L 71.818306 -50.81828 
L 72.155976 -59.097198 
L 72.493646 -55.248083 
L 72.831316 -60.20008 
L 73.168986 -56.498091 
L 73.506657 -56.386045 
L 73.844327 -57.611756 
L 74.181997 -57.811303 
L 74.519667 -54.54351 
L 74.857337 -55.354653 
L 75.195008 -47.613927 
L 75.532678 -58.913243 
L 75.870348 -53.787831 
L 76.208018 -57.200768 
L 76.545688 -53.712168 
L 76.883359 -59.585175 
L 77.221029 -52.90112 
L 77.558699 -52.423431 
L 77.896369 -55.612761 
L 78.234039 -55.017407 
L 78.57171 -60.713396 
L 78.90938 -58.612513 
L 79.24705 -58.447966 
L 79.58472 -61.15582 
L 79.92239 -59.040193 
L 80.260061 -61.418609 
L 80.597731 -52.597694 
L 80.935401 -61.390845 
L 81.273071 -58.253819 
L 81.610741 -57.478864 
L 81.948411 -51.273538 
L 82.286082 -59.669546 
L 82.623752 -57.800106 
L 82.961422 -52.628803 
L 83.299092 -59.26766 
L 83.636762 -60.183836 
L 83.974433 -59.730663 
L 84.312103 -57.642714 
L 84.649773 -59.14648 
L 84.987443 -59.980198 
L 85.325113 -49.37937 
L 85.662784 -56.497463 
L 86.000454 -56.008921 
L 86.338124 -54.031576 
L 86.675794 -60.861395 
L 87.013464 -61.863659 
L 87.351135 -53.763243 
L 87.688805 -58.830105 
L 88.026475 -60.597973 
L 88.364145 -61.101917 
L 88.701815 -60.459869 
L 89.039486 -58.664397 
L 89.377156 -55.23125 
L 89.714826 -50.81526 
L 90.052496 -61.361487 
L 90.390166 -52.491045 
L 90.727837 -55.357159 
L 91.065507 -60.546056 
L 91.403177 -61.284901 
L 91.740847 -54.58521 
L 92.078517 -55.342679 
L 92.416188 -53.273755 
L 92.753858 -61.612654 
L 93.091528 -48.971699 
L 93.429198 -60.757896 
L 93.766868 -46.413331 
L 94.104539 -46.288419 
L 94.442209 -60.925072 
L 94.779879 -45.497509 
L 95.117549 -52.675313 
L 95.455219 -56.200601 
L 95.79289 -58.772546 
L 96.13056 -55.421066 
L 96.46823 -57.742802 
L 96.8059 -59.464428 
L 97.14357 -57.577196 
L 97.481241 -60.675004 
L 97.818911 -61.410457 
L 98.156581 -55.944158 
L 98.494251 -53.020149 
L 98.831921 -55.104507 
L 99.169592 -57.870971 
L 99.507262 -55.573515 
L 99.844932 -61.005362 
L 100.182602 -56.944044 
L 100.520272 -53.620321 
L 100.857943 -54.193013 
L 101.195613 -56.817008 
L 101.533283 -50.797336 
L 101.870953 -56.749206 
L 102.208623 -60.314774 
L 102.546293 -53.858735 
L 102.883964 -61.195261 
L 103.221634 -60.810817 
L 103.559304 -60.912657 
L 103.896974 -58.747588 
L 104.234644 -55.500904 
L 104.572315 -55.263608 
L 104.909985 -61.568029 
L 105.247655 -61.703386 
L 105.585325 -60.162334 
L 105.922995 -54.932538 
L 106.260666 -54.23509 
L 106.598336 -61.161357 
L 106.936006 -46.533129 
L 107.273676 -59.550431 
L 107.611346 -55.586223 
L 107.949017 -54.299196 
L 108.286687 -52.113417 
L 108.624357 -55.670402 
L 108.962027 -52.350305 
L 109.299697 -53.155417 
L 109.637368 -56.947009 
L 109.975038 -58.720728 
L 110.312708 -55.637082 
L 110.650378 -61.834631 
L 110.988048 -61.835152 
L 111.325719 -55.274166 
L 111.663389 -54.570915 
L 112.001059 -58.136168 
L 112.338729 -51.191351 
L 112.676399 -60.527893 
L 113.01407 -53.682464 
L 113.35174 -47.263495 
L 113.68941 -54.383257 
L 114.02708 -41.2025 
L 114.36475 -56.375846 
L 114.702421 -61.006485 
L 115.040091 -56.119595 
L 115.377761 -53.338265 
L 115.715431 -59.67437 
L 116.053101 -52.847546 
L 116.390772 -48.13501 
L 116.728442 -59.32896 
L 117.066112 -59.903126 
L 117.403782 -58.425349 
L 117.741452 -48.770159 
L 118.079123 -55.33106 
L 118.416793 -61.651558 
L 118.754463 -51.302277 
L 119.092133 -55.456277 
L 119.429803 -58.897598 
L 119.767474 -57.780772 
L 120.105144 -54.183725 
L 120.442814 -54.710188 
L 120.780484 -36.83 
L 121.118154 -45.378325 
L 121.455825 -58.212614 
L 121.793495 -57.109655 
L 122.131165 -56.6081 
L 122.468835 -56.949392 
L 122.806505 -57.621445 
L 123.144175 -55.323237 
L 123.481846 -47.229939 
L 123.819516 -48.836006 
L 124.157186 -61.060887 
L 124.494856 -57.958889 
L 124.832526 -61.738314 
L 125.170197 -55.013188 
L 125.507867 -53.500456 
L 125.845537 -58.87485 
L 126.183207 -52.87552 
L 126.520877 -57.98591 
L 126.858548 -55.841653 
L 127.196218 -59.778955 
L 127.533888 -57.916583 
L 127.871558 -60.840787 
L 128.209228 -52.995132 
L 128.546899 -51.204293 
L 128.884569 -57.224098 
L 129.222239 -54.824571 
L 129.559909 -45.752761 
L 129.897579 -53.956067 
L 130.23525 -52.030829 
L 130.57292 -52.851778 
L 130.91059 -56.039995 
L 131.24826 -61.055956 
L 131.58593 -61.990706 
L 131.923601 -58.819805 
L 132.261271 -56.088339 
L 132.598941 -55.952153 
L 132.936611 -59.141264 
L 133.274281 -59.358642 
L 133.611952 -56.392432 
L 133.949622 -59.884795 
L 134.287292 -57.566142 
L 134.624962 -49.513447 
L 134.962632 -58.641837 
L 135.300303 -56.986534 
L 135.637973 -54.1758 
L 135.975643 -57.910395 
L 136.313313 -51.244274 
L 136.650983 -44.013219 
L 136.988654 -59.018254 
L 137.326324 -42.392555 
L 137.663994 -60.220994 
L 138.001664 -56.321301 
L 138.339334 -56.414969 
L 138.677005 -48.831312 
L 139.014675 -47.893523 
L 139.352345 -58.363898 
L 139.690015 -59.088383 
L 140.027685 -56.843658 
L 140.365356 -57.695343 
L 140.703026 -58.613257 
L 141.040696 -56.904571 
L 141.378366 -61.619813 
L 141.716036 -52.670306 
L 142.053707 -54.802573 
L 142.391377 -61.024068 
L 142.729047 -52.10479 
L 143.066717 -54.592482 
L 143.404387 -57.73416 
L 143.742057 -57.328861 
L 144.079728 -58.457351 
L 144.417398 -60.017371 
L 144.755068 -57.871699 
L 145.092738 -50.211177 
L 145.430408 -53.279966 
L 145.768079 -59.640563 
L 146.105749 -61.847293 
L 146.443419 -50.939913 
L 146.781089 -60.472642 
L 147.118759 -58.586264 
L 147.45643 -57.78409 
L 147.7941 -56.787867 
L 148.13177 -60.705367 
L 148.46944 -53.100317 
L 148.80711 -55.133567 
L 149.144781 -59.97417 
L 149.482451 -54.224396 
L 149.820121 -59.921286 
L 150.157791 -58.105335 
L 150.495461 -50.534073 
L 150.833132 -60.962198 
L 151.170802 -56.924971 
L 151.508472 -61.566959 
L 151.846142 -54.418671 
L 152.183812 -59.91954 
L 152.521483 -55.360957 
L 152.859153 -61.55225 
L 153.196823 -56.658791 
L 153.534493 -50.48694 
L 153.872163 -53.277256 
L 154.209834 -54.142404 
L 154.547504 -58.062954 
L 154.885174 -49.777076 
L 155.222844 -58.899721 
L 155.560514 -60.46227 
L 155.898185 -55.350817 
L 156.235855 -58.947149 
L 156.573525 -61.649375 
L 156.911195 -54.185131 
L 157.248865 -61.395485 
L 157.586536 -53.477478 
L 157.924206 -61.07227 
L 158.261876 -59.729588 
L 158.599546 -59.976432 
L 158.937216 -57.10483 
L 159.274887 -54.342901 
L 159.612557 -59.751354 
L 159.950227 -52.475356 
L 160.287897 -57.04375 
L 160.625567 -53.316197 
L 160.963238 -48.412923 
L 161.300908 -60.220474 
L 161.638578 -50.173587 
L 161.976248 -60.900433 
L 162.313918 -52.092029 
L 162.651589 -57.050025 
L 162.989259 -54.7942 
L 163.326929 -56.435437 
L 163.664599 -59.021746 
L 164.002269 -52.404422 
L 164.339939 -58.619868 
L 164.67761 -52.897215 
L 165.01528 -49.414478 
L 165.35295 -49.670095 
L 165.69062 -59.179795 
L 166.02829 -56.84748 
L 166.365961 -51.932512 
L 166.703631 -44.233069 
L 167.041301 -60.839599 
L 167.378971 -57.187921 
L 167.716641 -59.046191 
L 168.054312 -60.049573 
L 168.391982 -56.31875 
L 168.729652 -54.306008 
L 169.067322 -53.300733 
L 169.404992 -58.622324 
L 169.742663 -58.29954 
L 170.080333 -53.903643 
L 170.418003 -54.252572 
L 170.755673 -42.981774 
L 171.093343 -58.606859 
L 171.431014 -45.65612 
L 171.768684 -51.726942 
L 172.106354 -55.114579 
L 172.444024 -53.486707 
L 172.781694 -43.224482 
L 173.119365 -59.43314 
L 173.457035 -60.480383 
L 173.794705 -59.226495 
L 174.132375 -61.548494 
L 174.470045 -38.928236 
L 174.807716 -56.944017 
L 175.145386 -45.488617 
L 175.483056 -52.72742 
L 175.820726 -50.244353 
L 176.158396 -57.085127 
L 176.496067 -60.359025 
L 176.833737 -53.579354 
L 177.171407 -61.941296 
L 177.509077 -56.842606 
L 177.846747 -57.301926 
L 178.184418 -60.462816 
L 178.522088 -58.247084 
L 178.859758 -51.102423 
L 179.197428 -55.390446 
L 179.535098 -52.608277 
L 179.872769 -56.247775 
L 180.210439 -52.825169 
L 180.548109 -53.707182 
L 180.885779 -61.074097 
L 181.223449 -47.6004 
L 181.56112 -56.99924 
L 181.89879 -54.547761 
L 182.23646 -52.121861 
L 182.57413 -56.055392 
L 182.9118 -57.618464 
L 183.24947 -59.636244 
L 183.587141 -62.000262 
L 183.924811 -61.053087 
L 184.262481 -54.466384 
L 184.600151 -60.689241 
L 184.937821 -51.19772 
L 185.275492 -49.345921 
L 185.613162 -55.191899 
L 185.950832 -53.688662 
L 186.288502 -56.234498 
L 186.626172 -59.047083 
L 186.963843 -43.386538 
L 187.301513 -49.951095 
L 187.639183 -61.831104 
L 187.976853 -55.885947 
L 188.314523 -57.775237 
L 188.652194 -61.206504 
L 188.989864 -42.758539 
L 189.327534 -59.827364 
L 189.665204 -45.462047 
L 190.002874 -52.806703 
L 190.340545 -60.430701 
L 190.678215 -50.279408 
L 191.015885 -55.461468 
L 191.353555 -54.172942 
L 191.691225 -51.753698 
L 192.028896 -57.724703 
L 192.366566 -59.727639 
L 192.704236 -61.154343 
L 193.041906 -56.211748 
L 193.379576 -58.175886 
L 193.717247 -57.336666 
L 194.054917 -57.141108 
L 194.392587 -45.118063 
L 194.730257 -51.1549 
L 195.067927 -61.668332 
L 195.405598 -50.151536 
L 195.743268 -57.322067 
L 196.080938 -57.916531 
L 196.418608 -55.646495 
L 196.756278 -54.65599 
L 197.093949 -59.232041 
L 197.431619 -59.290413 
L 197.769289 -59.950567 
L 198.106959 -51.588057 
L 198.444629 -57.196333 
L 198.7823 -59.767777 
L 199.11997 -50.777037 
L 199.45764 -55.800909 
L 199.79531 -49.054842 
L 200.13298 -51.679911 
L 200.470651 -60.494254 
L 200.808321 -49.844246 
L 201.145991 -51.686524 
L 201.483661 -57.61677 
L 201.821331 -54.996545 
L 202.159002 -61.976068 
L 202.496672 -61.609805 
L 202.834342 -55.903528 
L 203.172012 -58.12135 
L 203.509682 -58.674721 
L 203.847352 -60.384269 
L 204.185023 -55.041144 
L 204.522693 -59.544242 
L 204.860363 -56.370912 
L 205.198033 -59.463687 
L 205.535703 -60.461361 
L 205.873374 -50.834246 
L 206.211044 -56.842109 
L 206.548714 -59.561699 
L 206.886384 -57.225899 
L 207.224054 -59.400088 
L 207.561725 -60.089191 
L 207.899395 -59.358903 
L 208.237065 -52.852209 
L 208.574735 -61.298071 
L 208.912405 -58.485943 
L 209.250076 -57.979828 
L 209.587746 -60.555737 
L 209.925416 -50.698578 
L 210.263086 -59.427201 
L 210.600756 -60.045447 
L 210.938427 -61.287092 
L 211.276097 -45.708905 
L 211.613767 -58.051205 
L 211.951437 -52.314307 
L 212.289107 -54.303106 
L 212.626778 -59.60147 
L 212.964448 -57.271533 
L 213.302118 -61.768525 
L 213.639788 -61.267571 
L 213.977458 -55.966419 
L 214.315129 -54.247475 
L 214.652799 -56.901627 
L 214.990469 -57.28961 
L 215.328139 -55.139715 
L 215.665809 -61.41866 
L 216.00348 -54.212177 
L 216.34115 -58.910812 
L 216.67882 -60.901417 
L 217.01649 -61.534928 
L 217.35416 -43.287957 
L 217.691831 -61.416836 
L 218.029501 -42.878476 
L 218.367171 -45.262109 
L 218.704841 -59.973098 
L 219.042511 -59.674114 
L 219.380182 -57.160008 
L 219.717852 -59.390573 
L 220.055522 -47.180133 
L 220.393192 -51.075528 
L 220.730862 -45.925247 
L 221.068533 -61.957313 
L 221.406203 -51.504869 
L 221.743873 -59.536822 
L 222.081543 -50.770978 
L 222.419213 -50.259726 
L 222.756884 -59.865815 
L 223.094554 -57.058742 
L 223.432224 -57.601712 
L 223.769894 -61.406481 
L 224.107564 -51.440557 
L 224.445234 -41.968819 
L 224.782905 -60.584857 
L 225.120575 -53.405928 
L 225.458245 -59.027355 
L 225.795915 -56.029788 
L 226.133585 -59.344618 
L 226.471256 -59.37225 
L 226.808926 -58.612074 
L 227.146596 -61.485743 
L 227.484266 -53.951046 
L 227.821936 -59.038502 
L 228.159607 -57.606045 
L 228.497277 -49.899654 
L 228.834947 -59.247632 
L 229.172617 -58.122394 
L 229.510287 -61.534169 
L 229.847958 -53.272194 
L 230.185628 -52.268448 
L 230.523298 -55.06097 
L 230.860968 -56.40192 
L 231.198638 -57.159461 
L 231.536309 -56.441417 
L 231.873979 -60.856973 
L 232.211649 -60.729887 
L 232.549319 -58.688368 
L 232.886989 -61.796008 
L 233.22466 -58.89395 
L 233.56233 -58.292631 
L 233.9 -62.03 
L 233.9 -62.03 
L 233.9 -62.03 
L 233.56233 -65.767369 
L 233.22466 -65.16605 
L 232.886989 -62.263992 
L 232.549319 -65.371632 
L 232.211649 -63.330113 
L 231.873979 -63.203027 
L 231.536309 -67.618583 
L 231.198638 -66.900539 
L 230.860968 -67.65808 
L 230.523298 -68.99903 
L 230.185628 -71.791552 
L 229.847958 -70.787806 
L 229.510287 -62.525831 
L 229.172617 -65.937606 
L 228.834947 -64.812368 
L 228.497277 -74.160346 
L 228.159607 -66.453955 
L 227.821936 -65.021498 
L 227.484266 -70.108954 
L 227.146596 -62.574257 
L 226.808926 -65.447926 
L 226.471256 -64.68775 
L 226.133585 -64.715382 
L 225.795915 -68.030212 
L 225.458245 -65.032645 
L 225.120575 -70.654072 
L 224.782905 -63.475143 
L 224.445234 -82.091181 
L 224.107564 -72.619443 
L 223.769894 -62.653519 
L 223.432224 -66.458288 
L 223.094554 -67.001258 
L 222.756884 -64.194185 
L 222.419213 -73.800274 
L 222.081543 -73.289022 
L 221.743873 -64.523178 
L 221.406203 -72.555131 
L 221.068533 -62.102687 
L 220.730862 -78.134753 
L 220.393192 -72.984472 
L 220.055522 -76.879867 
L 219.717852 -64.669427 
L 219.380182 -66.899992 
L 219.042511 -64.385886 
L 218.704841 -64.086902 
L 218.367171 -78.797891 
L 218.029501 -81.181524 
L 217.691831 -62.643164 
L 217.35416 -80.772043 
L 217.01649 -62.525072 
L 216.67882 -63.158583 
L 216.34115 -65.149188 
L 216.00348 -69.847823 
L 215.665809 -62.64134 
L 215.328139 -68.920285 
L 214.990469 -66.77039 
L 214.652799 -67.158373 
L 214.315129 -69.812525 
L 213.977458 -68.093581 
L 213.639788 -62.792429 
L 213.302118 -62.291475 
L 212.964448 -66.788467 
L 212.626778 -64.45853 
L 212.289107 -69.756894 
L 211.951437 -71.745693 
L 211.613767 -66.008795 
L 211.276097 -78.351095 
L 210.938427 -62.772908 
L 210.600756 -64.014553 
L 210.263086 -64.632799 
L 209.925416 -73.361422 
L 209.587746 -63.504263 
L 209.250076 -66.080172 
L 208.912405 -65.574057 
L 208.574735 -62.761929 
L 208.237065 -71.207791 
L 207.899395 -64.701097 
L 207.561725 -63.970809 
L 207.224054 -64.659912 
L 206.886384 -66.834101 
L 206.548714 -64.498301 
L 206.211044 -67.217891 
L 205.873374 -73.225754 
L 205.535703 -63.598639 
L 205.198033 -64.596313 
L 204.860363 -67.689088 
L 204.522693 -64.515758 
L 204.185023 -69.018856 
L 203.847352 -63.675731 
L 203.509682 -65.385279 
L 203.172012 -65.93865 
L 202.834342 -68.156472 
L 202.496672 -62.450195 
L 202.159002 -62.083932 
L 201.821331 -69.063455 
L 201.483661 -66.44323 
L 201.145991 -72.373476 
L 200.808321 -74.215754 
L 200.470651 -63.565746 
L 200.13298 -72.380089 
L 199.79531 -75.005158 
L 199.45764 -68.259091 
L 199.11997 -73.282963 
L 198.7823 -64.292223 
L 198.444629 -66.863667 
L 198.106959 -72.471943 
L 197.769289 -64.109433 
L 197.431619 -64.769587 
L 197.093949 -64.827959 
L 196.756278 -69.40401 
L 196.418608 -68.413505 
L 196.080938 -66.143469 
L 195.743268 -66.737933 
L 195.405598 -73.908464 
L 195.067927 -62.391668 
L 194.730257 -72.9051 
L 194.392587 -78.941937 
L 194.054917 -66.918892 
L 193.717247 -66.723334 
L 193.379576 -65.884114 
L 193.041906 -67.848252 
L 192.704236 -62.905657 
L 192.366566 -64.332361 
L 192.028896 -66.335297 
L 191.691225 -72.306302 
L 191.353555 -69.887058 
L 191.015885 -68.598532 
L 190.678215 -73.780592 
L 190.340545 -63.629299 
L 190.002874 -71.253297 
L 189.665204 -78.597953 
L 189.327534 -64.232636 
L 188.989864 -81.301461 
L 188.652194 -62.853496 
L 188.314523 -66.284763 
L 187.976853 -68.174053 
L 187.639183 -62.228896 
L 187.301513 -74.108905 
L 186.963843 -80.673462 
L 186.626172 -65.012917 
L 186.288502 -67.825502 
L 185.950832 -70.371338 
L 185.613162 -68.868101 
L 185.275492 -74.714079 
L 184.937821 -72.86228 
L 184.600151 -63.370759 
L 184.262481 -69.593616 
L 183.924811 -63.006913 
L 183.587141 -62.059738 
L 183.24947 -64.423756 
L 182.9118 -66.441536 
L 182.57413 -68.004608 
L 182.23646 -71.938139 
L 181.89879 -69.512239 
L 181.56112 -67.06076 
L 181.223449 -76.4596 
L 180.885779 -62.985903 
L 180.548109 -70.352818 
L 180.210439 -71.234831 
L 179.872769 -67.812225 
L 179.535098 -71.451723 
L 179.197428 -68.669554 
L 178.859758 -72.957577 
L 178.522088 -65.812916 
L 178.184418 -63.597184 
L 177.846747 -66.758074 
L 177.509077 -67.217394 
L 177.171407 -62.118704 
L 176.833737 -70.480646 
L 176.496067 -63.700975 
L 176.158396 -66.974873 
L 175.820726 -73.815647 
L 175.483056 -71.33258 
L 175.145386 -78.571383 
L 174.807716 -67.115983 
L 174.470045 -85.131764 
L 174.132375 -62.511506 
L 173.794705 -64.833505 
L 173.457035 -63.579617 
L 173.119365 -64.62686 
L 172.781694 -80.835518 
L 172.444024 -70.573293 
L 172.106354 -68.945421 
L 171.768684 -72.333058 
L 171.431014 -78.40388 
L 171.093343 -65.453141 
L 170.755673 -81.078226 
L 170.418003 -69.807428 
L 170.080333 -70.156357 
L 169.742663 -65.76046 
L 169.404992 -65.437676 
L 169.067322 -70.759267 
L 168.729652 -69.753992 
L 168.391982 -67.74125 
L 168.054312 -64.010427 
L 167.716641 -65.013809 
L 167.378971 -66.872079 
L 167.041301 -63.220401 
L 166.703631 -79.826931 
L 166.365961 -72.127488 
L 166.02829 -67.21252 
L 165.69062 -64.880205 
L 165.35295 -74.389905 
L 165.01528 -74.645522 
L 164.67761 -71.162785 
L 164.339939 -65.440132 
L 164.002269 -71.655578 
L 163.664599 -65.038254 
L 163.326929 -67.624563 
L 162.989259 -69.2658 
L 162.651589 -67.009975 
L 162.313918 -71.967971 
L 161.976248 -63.159567 
L 161.638578 -73.886413 
L 161.300908 -63.839526 
L 160.963238 -75.647077 
L 160.625567 -70.743803 
L 160.287897 -67.01625 
L 159.950227 -71.584644 
L 159.612557 -64.308646 
L 159.274887 -69.717099 
L 158.937216 -66.95517 
L 158.599546 -64.083568 
L 158.261876 -64.330412 
L 157.924206 -62.98773 
L 157.586536 -70.582522 
L 157.248865 -62.664515 
L 156.911195 -69.874869 
L 156.573525 -62.410625 
L 156.235855 -65.112851 
L 155.898185 -68.709183 
L 155.560514 -63.59773 
L 155.222844 -65.160279 
L 154.885174 -74.282924 
L 154.547504 -65.997046 
L 154.209834 -69.917596 
L 153.872163 -70.782744 
L 153.534493 -73.57306 
L 153.196823 -67.401209 
L 152.859153 -62.50775 
L 152.521483 -68.699043 
L 152.183812 -64.14046 
L 151.846142 -69.641329 
L 151.508472 -62.493041 
L 151.170802 -67.135029 
L 150.833132 -63.097802 
L 150.495461 -73.525927 
L 150.157791 -65.954665 
L 149.820121 -64.138714 
L 149.482451 -69.835604 
L 149.144781 -64.08583 
L 148.80711 -68.926433 
L 148.46944 -70.959683 
L 148.13177 -63.354633 
L 147.7941 -67.272133 
L 147.45643 -66.27591 
L 147.118759 -65.473736 
L 146.781089 -63.587358 
L 146.443419 -73.120087 
L 146.105749 -62.212707 
L 145.768079 -64.419437 
L 145.430408 -70.780034 
L 145.092738 -73.848823 
L 144.755068 -66.188301 
L 144.417398 -64.042629 
L 144.079728 -65.602649 
L 143.742057 -66.731139 
L 143.404387 -66.32584 
L 143.066717 -69.467518 
L 142.729047 -71.95521 
L 142.391377 -63.035932 
L 142.053707 -69.257427 
L 141.716036 -71.389694 
L 141.378366 -62.440187 
L 141.040696 -67.155429 
L 140.703026 -65.446743 
L 140.365356 -66.364657 
L 140.027685 -67.216342 
L 139.690015 -64.971617 
L 139.352345 -65.696102 
L 139.014675 -76.166477 
L 138.677005 -75.228688 
L 138.339334 -67.645031 
L 138.001664 -67.738699 
L 137.663994 -63.839006 
L 137.326324 -81.667445 
L 136.988654 -65.041746 
L 136.650983 -80.046781 
L 136.313313 -72.815726 
L 135.975643 -66.149605 
L 135.637973 -69.8842 
L 135.300303 -67.073466 
L 134.962632 -65.418163 
L 134.624962 -74.546553 
L 134.287292 -66.493858 
L 133.949622 -64.175205 
L 133.611952 -67.667568 
L 133.274281 -64.701358 
L 132.936611 -64.918736 
L 132.598941 -68.107847 
L 132.261271 -67.971661 
L 131.923601 -65.240195 
L 131.58593 -62.069294 
L 131.24826 -63.004044 
L 130.91059 -68.020005 
L 130.57292 -71.208222 
L 130.23525 -72.029171 
L 129.897579 -70.103933 
L 129.559909 -78.307239 
L 129.222239 -69.235429 
L 128.884569 -66.835902 
L 128.546899 -72.855707 
L 128.209228 -71.064868 
L 127.871558 -63.219213 
L 127.533888 -66.143417 
L 127.196218 -64.281045 
L 126.858548 -68.218347 
L 126.520877 -66.07409 
L 126.183207 -71.18448 
L 125.845537 -65.18515 
L 125.507867 -70.559544 
L 125.170197 -69.046812 
L 124.832526 -62.321686 
L 124.494856 -66.101111 
L 124.157186 -62.999113 
L 123.819516 -75.223994 
L 123.481846 -76.830061 
L 123.144175 -68.736763 
L 122.806505 -66.438555 
L 122.468835 -67.110608 
L 122.131165 -67.4519 
L 121.793495 -66.950345 
L 121.455825 -65.847386 
L 121.118154 -78.681675 
L 120.780484 -87.23 
L 120.442814 -69.349812 
L 120.105144 -69.876275 
L 119.767474 -66.279228 
L 119.429803 -65.162402 
L 119.092133 -68.603723 
L 118.754463 -72.757723 
L 118.416793 -62.408442 
L 118.079123 -68.72894 
L 117.741452 -75.289841 
L 117.403782 -65.634651 
L 117.066112 -64.156874 
L 116.728442 -64.73104 
L 116.390772 -75.92499 
L 116.053101 -71.212454 
L 115.715431 -64.38563 
L 115.377761 -70.721735 
L 115.040091 -67.940405 
L 114.702421 -63.053515 
L 114.36475 -67.684154 
L 114.02708 -82.8575 
L 113.68941 -69.676743 
L 113.35174 -76.796505 
L 113.01407 -70.377536 
L 112.676399 -63.532107 
L 112.338729 -72.868649 
L 112.001059 -65.923832 
L 111.663389 -69.489085 
L 111.325719 -68.785834 
L 110.988048 -62.224848 
L 110.650378 -62.225369 
L 110.312708 -68.422918 
L 109.975038 -65.339272 
L 109.637368 -67.112991 
L 109.299697 -70.904583 
L 108.962027 -71.709695 
L 108.624357 -68.389598 
L 108.286687 -71.946583 
L 107.949017 -69.760804 
L 107.611346 -68.473777 
L 107.273676 -64.509569 
L 106.936006 -77.526871 
L 106.598336 -62.898643 
L 106.260666 -69.82491 
L 105.922995 -69.127462 
L 105.585325 -63.897666 
L 105.247655 -62.356614 
L 104.909985 -62.491971 
L 104.572315 -68.796392 
L 104.234644 -68.559096 
L 103.896974 -65.312412 
L 103.559304 -63.147343 
L 103.221634 -63.249183 
L 102.883964 -62.864739 
L 102.546293 -70.201265 
L 102.208623 -63.745226 
L 101.870953 -67.310794 
L 101.533283 -73.262664 
L 101.195613 -67.242992 
L 100.857943 -69.866987 
L 100.520272 -70.439679 
L 100.182602 -67.115956 
L 99.844932 -63.054638 
L 99.507262 -68.486485 
L 99.169592 -66.189029 
L 98.831921 -68.955493 
L 98.494251 -71.039851 
L 98.156581 -68.115842 
L 97.818911 -62.649543 
L 97.481241 -63.384996 
L 97.14357 -66.482804 
L 96.8059 -64.595572 
L 96.46823 -66.317198 
L 96.13056 -68.638934 
L 95.79289 -65.287454 
L 95.455219 -67.859399 
L 95.117549 -71.384687 
L 94.779879 -78.562491 
L 94.442209 -63.134928 
L 94.104539 -77.771581 
L 93.766868 -77.646669 
L 93.429198 -63.302104 
L 93.091528 -75.088301 
L 92.753858 -62.447346 
L 92.416188 -70.786245 
L 92.078517 -68.717321 
L 91.740847 -69.47479 
L 91.403177 -62.775099 
L 91.065507 -63.513944 
L 90.727837 -68.702841 
L 90.390166 -71.568955 
L 90.052496 -62.698513 
L 89.714826 -73.24474 
L 89.377156 -68.82875 
L 89.039486 -65.395603 
L 88.701815 -63.600131 
L 88.364145 -62.958083 
L 88.026475 -63.462027 
L 87.688805 -65.229895 
L 87.351135 -70.296757 
L 87.013464 -62.196341 
L 86.675794 -63.198605 
L 86.338124 -70.028424 
L 86.000454 -68.051079 
L 85.662784 -67.562537 
L 85.325113 -74.68063 
L 84.987443 -64.079802 
L 84.649773 -64.91352 
L 84.312103 -66.417286 
L 83.974433 -64.329337 
L 83.636762 -63.876164 
L 83.299092 -64.79234 
L 82.961422 -71.431197 
L 82.623752 -66.259894 
L 82.286082 -64.390454 
L 81.948411 -72.786462 
L 81.610741 -66.581136 
L 81.273071 -65.806181 
L 80.935401 -62.669155 
L 80.597731 -71.462306 
L 80.260061 -62.641391 
L 79.92239 -65.019807 
L 79.58472 -62.90418 
L 79.24705 -65.612034 
L 78.90938 -65.447487 
L 78.57171 -63.346604 
L 78.234039 -69.042593 
L 77.896369 -68.447239 
L 77.558699 -71.636569 
L 77.221029 -71.15888 
L 76.883359 -64.474825 
L 76.545688 -70.347832 
L 76.208018 -66.859232 
L 75.870348 -70.272169 
L 75.532678 -65.146757 
L 75.195008 -76.446073 
L 74.857337 -68.705347 
L 74.519667 -69.51649 
L 74.181997 -66.248697 
L 73.844327 -66.448244 
L 73.506657 -67.673955 
L 73.168986 -67.561909 
L 72.831316 -63.85992 
L 72.493646 -68.811917 
L 72.155976 -64.962802 
L 71.818306 -73.24172 
L 71.480635 -65.824104 
L 71.142965 -85.067118 
L 70.805295 -63.764415 
L 70.467625 -72.24351 
L 70.129955 -64.674461 
L 69.792284 -71.145521 
L 69.454614 -68.098318 
L 69.116944 -70.534045 
L 68.779274 -64.796818 
L 68.441604 -64.768274 
L 68.103933 -62.470954 
L 67.766263 -63.724428 
L 67.428593 -63.390674 
L 67.090923 -62.446506 
L 66.753253 -69.368446 
L 66.415582 -68.057098 
L 66.077912 -67.806614 
L 65.740242 -78.459265 
L 65.402572 -66.789447 
L 65.064902 -66.379543 
L 64.727231 -67.802743 
L 64.389561 -72.529015 
L 64.051891 -66.276803 
L 63.714221 -64.046104 
L 63.376551 -62.426747 
L 63.03888 -67.434396 
L 62.70121 -75.345285 
L 62.36354 -67.340045 
L 62.02587 -69.614733 
L 61.6882 -68.024009 
L 61.35053 -77.084523 
L 61.012859 -65.188475 
L 60.675189 -71.844013 
L 60.337519 -64.955493 
L 59.999849 -68.068149 
L 59.662179 -68.983948 
L 59.324508 -74.423127 
L 58.986838 -68.70031 
L 58.649168 -66.469225 
L 58.311498 -63.906137 
L 57.973828 -62.205661 
L 57.636157 -65.111592 
L 57.298487 -74.787656 
L 56.960817 -72.529611 
L 56.623147 -63.41742 
L 56.285477 -67.391388 
L 55.947806 -65.476072 
L 55.610136 -65.360263 
L 55.272466 -62.073825 
L 54.934796 -64.370151 
L 54.597126 -64.308055 
L 54.259455 -65.362571 
L 53.921785 -73.592969 
L 53.584115 -63.022876 
L 53.246445 -73.382375 
L 52.908775 -70.000456 
L 52.571104 -74.664976 
L 52.233434 -66.650059 
L 51.895764 -73.94772 
L 51.558094 -62.12594 
L 51.220424 -64.527409 
L 50.882753 -69.690099 
L 50.545083 -70.533763 
L 50.207413 -63.724053 
L 49.869743 -72.366005 
L 49.532073 -74.725391 
L 49.194402 -67.681177 
L 48.856732 -67.743177 
L 48.519062 -73.5763 
L 48.181392 -69.415803 
L 47.843722 -63.03031 
L 47.506051 -74.534831 
L 47.168381 -68.741995 
L 46.830711 -62.35446 
L 46.493041 -62.17221 
L 46.155371 -71.628236 
L 45.8177 -64.614552 
L 45.48003 -69.599175 
L 45.14236 -63.40817 
L 44.80469 -64.629129 
L 44.46702 -63.528478 
L 44.129349 -64.243522 
L 43.791679 -78.657821 
L 43.454009 -72.417983 
L 43.116339 -73.200307 
L 42.778669 -75.353019 
L 42.440998 -69.943042 
L 42.103328 -67.843694 
L 41.765658 -69.851689 
L 41.427988 -63.964727 
L 41.090318 -62.032061 
L 40.752648 -67.987471 
L 40.414977 -73.654661 
L 40.077307 -64.190166 
L 39.739637 -66.657208 
L 39.401967 -81.973191 
L 39.064297 -63.599388 
L 38.726626 -63.946716 
L 38.388956 -62.395022 
L 38.051286 -71.133421 
L 37.713616 -67.337159 
L 37.375946 -69.510165 
L 37.038275 -73.487916 
L 36.700605 -66.677484 
L 36.362935 -74.502002 
L 36.025265 -66.22732 
L 35.687595 -73.855785 
L 35.349924 -66.57271 
L 35.012254 -64.934062 
L 34.674584 -68.571276 
L 34.336914 -62.902413 
L 33.999244 -69.664071 
L 33.661573 -67.853683 
L 33.323903 -65.410708 
L 32.986233 -66.740623 
L 32.648563 -66.694759 
L 32.310893 -68.528663 
L 31.973222 -66.894518 
L 31.635552 -65.275926 
L 31.297882 -67.896941 
L 30.960212 -73.895336 
L 30.622542 -66.394316 
L 30.284871 -66.945959 
L 29.947201 -69.275136 
L 29.609531 -68.721086 
L 29.271861 -69.407528 
L 28.934191 -65.063863 
L 28.59652 -73.495628 
L 28.25885 -64.005712 
L 27.92118 -66.775827 
L 27.58351 -64.516433 
L 27.24584 -64.659431 
L 26.908169 -64.567277 
L 26.570499 -65.266483 
L 26.232829 -71.476197 
L 25.895159 -66.11611 
L 25.557489 -66.287024 
L 25.219818 -67.785371 
L 24.882148 -66.924061 
L 24.544478 -66.575625 
L 24.206808 -72.464588 
L 23.869138 -66.274123 
L 23.531467 -64.729711 
L 23.193797 -73.885262 
L 22.856127 -62.780481 
L 22.518457 -71.410696 
L 22.180787 -62.488069 
L 21.843116 -71.897718 
L 21.505446 -71.001772 
L 21.167776 -68.148142 
L 20.830106 -68.518698 
L 20.492436 -67.248076 
L 20.154766 -68.803821 
L 19.817095 -70.751795 
L 19.479425 -70.957449 
L 19.141755 -63.400908 
L 18.804085 -64.077997 
L 18.466415 -67.793062 
L 18.128744 -71.464756 
L 17.791074 -68.723012 
L 17.453404 -70.28555 
L 17.115734 -67.290906 
L 16.778064 -70.703595 
L 16.440393 -71.125849 
L 16.102723 -73.103286 
L 15.765053 -65.343169 
L 15.427383 -62.048343 
L 15.089713 -82.563563 
L 14.752042 -62.24655 
L 14.414372 -67.286965 
L 14.076702 -75.414214 
L 13.739032 -68.162706 
L 13.401362 -64.941534 
L 13.063691 -65.21716 
L 12.726021 -66.29733 
L 12.388351 -79.683024 
L 12.050681 -62.728303 
L 11.713011 -66.180942 
L 11.37534 -78.260257 
L 11.03767 -74.685323 
L 10.7 -73.958335 
z
" id="m62d849dac5" style="stroke:#1f77b4;"/>
    </defs>
    <g clip-path="url(#p1eaf7dee23)">
     <use style="fill:#1f77b4;stroke:#1f77b4;" x="0" xlink:href="#m62d849dac5" y="109.919"/>
    </g>
   </g>
   <g id="matplotlib.axis_1">
    <g id="xtick_1">
     <g id="line2d_1">
      <defs>
       <path d="M 0 0 
L 0 3.5 
" id="m9da7766647" style="stroke:#000000;stroke-width:0.8;"/>
      </defs>
      <g>
       <use style="stroke:#000000;stroke-width:0.8;" x="10.7" xlink:href="#m9da7766647" y="75.609"/>
      </g>
     </g>
     <g id="text_1">
      <text style="font-family:TeX Gyre Pagella;font-size:8px;font-stretch:normal;font-style:normal;font-weight:normal;text-anchor:middle;" transform="rotate(-0, 10.7, 88.4165)" x="10.7" y="88.4165">0</text>
     </g>
    </g>
    <g id="xtick_2">
     <g id="line2d_2">
      <g>
       <use style="stroke:#000000;stroke-width:0.8;" x="47.928139" xlink:href="#m9da7766647" y="75.609"/>
      </g>
     </g>
     <g id="text_2">
      <text style="font-family:TeX Gyre Pagella;font-size:8px;font-stretch:normal;font-style:normal;font-weight:normal;text-anchor:middle;" transform="rotate(-0, 47.928139, 88.4165)" x="47.928139" y="88.4165">0.005</text>
     </g>
    </g>
    <g id="xtick_3">
     <g id="line2d_3">
      <g>
       <use style="stroke:#000000;stroke-width:0.8;" x="85.156278" xlink:href="#m9da7766647" y="75.609"/>
      </g>
     </g>
     <g id="text_3">
      <text style="font-family:TeX Gyre Pagella;font-size:8px;font-stretch:normal;font-style:normal;font-weight:normal;text-anchor:middle;" transform="rotate(-0, 85.156278, 88.4165)" x="85.156278" y="88.4165">0.01</text>
     </g>
    </g>
    <g id="xtick_4">
     <g id="line2d_4">
      <g>
       <use style="stroke:#000000;stroke-width:0.8;" x="122.384418" xlink:href="#m9da7766647" y="75.609"/>
      </g>
     </g>
     <g id="text_4">
      <text style="font-family:TeX Gyre Pagella;font-size:8px;font-stretch:normal;font-style:normal;font-weight:normal;text-anchor:middle;" transform="rotate(-0, 122.384418, 88.4165)" x="122.384418" y="88.4165">0.015</text>
     </g>
    </g>
    <g id="xtick_5">
     <g id="line2d_5">
      <g>
       <use style="stroke:#000000;stroke-width:0.8;" x="159.612557" xlink:href="#m9da7766647" y="75.609"/>
      </g>
     </g>
     <g id="text_5">
      <text style="font-family:TeX Gyre Pagella;font-size:8px;font-stretch:normal;font-style:normal;font-weight:normal;text-anchor:middle;" transform="rotate(-0, 159.612557, 88.4165)" x="159.612557" y="88.4165">0.02</text>
     </g>
    </g>
    <g id="xtick_6">
     <g id="line2d_6">
      <g>
       <use style="stroke:#000000;stroke-width:0.8;" x="196.840696" xlink:href="#m9da7766647" y="75.609"/>
      </g>
     </g>
     <g id="text_6">
      <text style="font-family:TeX Gyre Pagella;font-size:8px;font-stretch:normal;font-style:normal;font-weight:normal;text-anchor:middle;" transform="rotate(-0, 196.840696, 88.4165)" x="196.840696" y="88.4165">0.025</text>
     </g>
    </g>
    <g id="text_7">
     <text style="font-family:TeX Gyre Pagella;font-size:8px;font-stretch:normal;font-style:normal;font-weight:normal;text-anchor:middle;" transform="rotate(-0, 122.3, 100.4715)" x="122.3" y="100.4715">Time</text>
    </g>
   </g>
   <g id="matplotlib.axis_2">
    <g id="ytick_1">
     <g id="line2d_7">
      <defs>
       <path d="M 0 0 
L -3.5 0 
" id="m933bc6c939" style="stroke:#000000;stroke-width:0.8;"/>
      </defs>
      <g>
       <use style="stroke:#000000;stroke-width:0.8;" x="10.7" xlink:href="#m933bc6c939" y="65.094534"/>
      </g>
     </g>
    </g>
    <g id="ytick_2">
     <g id="line2d_8">
      <g>
       <use style="stroke:#000000;stroke-width:0.8;" x="10.7" xlink:href="#m933bc6c939" y="47.889"/>
      </g>
     </g>
    </g>
    <g id="ytick_3">
     <g id="line2d_9">
      <g>
       <use style="stroke:#000000;stroke-width:0.8;" x="10.7" xlink:href="#m933bc6c939" y="30.683466"/>
      </g>
     </g>
    </g>
   </g>
   <g id="patch_3">
    <path d="M 10.7 75.609 
L 10.7 20.169 
" style="fill:none;stroke:#000000;stroke-linecap:square;stroke-linejoin:miter;stroke-width:0.8;"/>
   </g>
   <g id="patch_4">
    <path d="M 233.9 75.609 
L 233.9 20.169 
" style="fill:none;stroke:#000000;stroke-linecap:square;stroke-linejoin:miter;stroke-width:0.8;"/>
   </g>
   <g id="patch_5">
    <path d="M 10.7 75.609 
L 233.9 75.609 
" style="fill:none;stroke:#000000;stroke-linecap:square;stroke-linejoin:miter;stroke-width:0.8;"/>
   </g>
   <g id="patch_6">
    <path d="M 10.7 20.169 
L 233.9 20.169 
" style="fill:none;stroke:#000000;stroke-linecap:square;stroke-linejoin:miter;stroke-width:0.8;"/>
   </g>
   <g id="text_8">
    <text style="font-family:TeX Gyre Pagella;font-size:9.6px;font-stretch:normal;font-style:normal;font-weight:normal;text-anchor:middle;" transform="rotate(-0, 122.3, 14.169)" x="122.3" y="14.169">audio</text>
   </g>
  </g>
 </g>
 <defs>
  <clipPath id="p1eaf7dee23">
   <rect height="55.44" width="223.2" x="10.7" y="20.169"/>
  </clipPath>
 </defs>
</svg>
